<?xml version="1.0" standalone="no"?>
<!DOCTYPE svg PUBLIC "-//W3C//DTD SVG 20010904//EN"
 "http://www.w3.org/TR/2001/REC-SVG-20010904/DTD/svg10.dtd">
<svg version="1.0" xmlns="http://www.w3.org/2000/svg"
 width="1500.000000pt" height="1500.000000pt" viewBox="0 0 1500.000000 1500.000000"
 preserveAspectRatio="xMidYMid meet">

<g transform="translate(0.000000,1500.000000) scale(0.100000,-0.100000)"
fill="#000000" stroke="none">
<path d="M7442 12688 c-7 -7 -12 -15 -12 -20 0 -4 -172 -312 -381 -685 -210
-373 -443 -788 -519 -923 -452 -805 -1027 -1830 -1510 -2690 -304 -542 -624
-1111 -710 -1265 -1184 -2108 -2370 -4225 -2370 -4230 0 -3 573 -5 1273 -5
l1272 1 110 201 c61 111 195 352 298 537 104 185 227 406 275 491 47 85 135
243 195 350 61 107 186 332 280 500 93 168 202 361 242 430 40 69 112 197 160
285 48 88 154 277 235 420 184 323 327 577 535 950 193 346 448 797 558 988
70 122 81 136 92 120 6 -10 65 -112 130 -228 65 -115 184 -325 263 -465 80
-140 181 -320 225 -400 44 -80 146 -262 227 -405 225 -398 495 -878 624 -1107
261 -466 356 -636 506 -903 87 -154 203 -361 257 -460 55 -99 217 -389 360
-645 143 -256 284 -509 312 -562 l53 -98 1274 0 c701 0 1274 2 1274 4 0 2 -18
35 -39 73 -21 37 -218 388 -436 778 -422 753 -1287 2295 -1815 3235 -175 311
-381 679 -459 818 -78 139 -398 710 -713 1270 -1076 1917 -1531 2727 -1786
3182 -140 250 -258 458 -261 463 -4 4 -12 2 -19 -5z"/>
</g>
</svg>
