<svg width="242" height="138" viewBox="0 0 242 138" fill="none" xmlns="http://www.w3.org/2000/svg">
<path d="M93.2428 60.7243L94.5961 62.8264L93.2428 60.7243ZM84.9362 96.4665L82.5787 97.2985V97.2985L84.9362 96.4665ZM112.89 125.947L111.696 128.144L111.771 128.184L111.848 128.22L112.89 125.947ZM143.643 134.591L143.663 132.091V132.091L143.643 134.591ZM193.955 97.511L191.988 95.9688L193.955 97.511ZM231.673 1.40917C231.07 0.166981 229.575 -0.351368 228.332 0.251397L208.09 10.074C206.848 10.6768 206.329 12.1724 206.932 13.4146C207.535 14.6568 209.03 15.1752 210.273 14.5724L228.266 5.84118L236.997 23.8347C237.6 25.0769 239.096 25.5952 240.338 24.9924C241.58 24.3897 242.098 22.8941 241.496 21.6519L231.673 1.40917ZM0.951904 112.872L2.11733e-05 115.184C48.9097 135.323 96.7893 124.965 118.79 110.073L117.389 108.003L115.987 105.932C95.4352 119.844 49.3311 130.089 1.90379 110.56L0.951904 112.872ZM117.389 108.003L118.79 110.073C129.872 102.572 136.219 92.7899 137.327 83.1061C138.447 73.3263 134.163 64.0472 124.83 57.9862L123.468 60.0829L122.107 62.1796C129.937 67.2648 133.252 74.7445 132.36 82.5374C131.457 90.4263 126.182 99.0313 115.987 105.932L117.389 108.003ZM123.468 60.0829L124.83 57.9862C119.385 54.4505 114.353 52.3936 108.922 52.4411C103.512 52.4884 98.1043 54.6214 91.8896 58.6223L93.2428 60.7243L94.5961 62.8264C100.434 59.0682 104.898 57.4765 108.966 57.4409C113.014 57.4055 117.068 58.9074 122.107 62.1796L123.468 60.0829ZM93.2428 60.7243L91.8896 58.6223C81.4531 65.341 76.6057 80.3735 82.5787 97.2985L84.9362 96.4665L87.2937 95.6345C81.8824 80.3011 86.5918 67.9794 94.5961 62.8264L93.2428 60.7243ZM84.9362 96.4665L82.5787 97.2985C85.9208 106.769 93.3185 114.492 99.6542 119.758C102.851 122.415 105.843 124.501 108.039 125.924C109.138 126.637 110.041 127.186 110.675 127.559C110.991 127.746 111.241 127.889 111.414 127.987C111.501 128.035 111.568 128.073 111.615 128.099C111.639 128.113 111.658 128.123 111.671 128.13C111.678 128.134 111.683 128.137 111.687 128.139C111.689 128.14 111.691 128.141 111.692 128.142C111.693 128.142 111.694 128.143 111.694 128.143C111.695 128.143 111.696 128.144 112.89 125.947C114.084 123.751 114.084 123.751 114.084 123.751C114.084 123.751 114.085 123.751 114.085 123.751C114.085 123.751 114.085 123.751 114.084 123.751C114.083 123.75 114.08 123.749 114.077 123.747C114.069 123.743 114.056 123.736 114.039 123.726C114.004 123.706 113.948 123.676 113.874 123.634C113.727 123.55 113.503 123.422 113.214 123.252C112.635 122.911 111.793 122.399 110.759 121.729C108.688 120.386 105.862 118.416 102.85 115.913C96.7688 110.858 90.1898 103.841 87.2937 95.6345L84.9362 96.4665ZM112.89 125.947C111.848 128.22 111.849 128.22 111.849 128.22C111.849 128.22 111.85 128.221 111.85 128.221C111.851 128.221 111.852 128.222 111.854 128.222C111.857 128.224 111.861 128.226 111.866 128.228C111.877 128.233 111.892 128.24 111.911 128.248C111.95 128.266 112.006 128.291 112.079 128.324C112.224 128.389 112.437 128.484 112.711 128.604C113.259 128.844 114.05 129.185 115.036 129.594C117.007 130.41 119.762 131.499 122.906 132.593C129.111 134.752 137.132 137.038 143.623 137.091L143.643 134.591L143.663 132.091C138.052 132.046 130.695 130.01 124.549 127.871C121.518 126.816 118.854 125.763 116.95 124.974C115.998 124.58 115.238 124.253 114.718 124.025C114.458 123.911 114.259 123.822 114.125 123.762C114.059 123.732 114.009 123.71 113.976 123.695C113.96 123.687 113.948 123.682 113.94 123.679C113.936 123.677 113.934 123.676 113.932 123.675C113.931 123.675 113.931 123.674 113.931 123.674C113.931 123.674 113.931 123.674 113.931 123.674C113.931 123.674 113.931 123.674 112.89 125.947ZM143.643 134.591L143.623 137.091C156.035 137.192 165.602 132.141 173.8 124.851C181.896 117.652 188.849 108.078 195.923 99.0533L193.955 97.511L191.988 95.9688C184.721 105.239 178.141 114.3 170.477 121.115C162.916 127.839 154.497 132.179 143.663 132.091L143.643 134.591ZM193.955 97.511L195.923 99.0533C209.385 81.8772 214.322 61.8356 220.086 45.2044L217.724 44.3857L215.362 43.567C209.402 60.7645 204.784 79.6424 191.988 95.9688L193.955 97.511ZM217.724 44.3857L220.086 45.2044C223.063 36.6164 224.546 30.2664 226.008 24.0123C227.465 17.781 228.9 11.6456 231.786 3.31926L229.424 2.50058L227.062 1.68189C224.085 10.2699 222.602 16.6199 221.14 22.874C219.683 29.1053 218.248 35.2407 215.362 43.567L217.724 44.3857Z" fill="#456395"/>
</svg>
