<svg width="98" height="259" viewBox="0 0 98 259" fill="none" xmlns="http://www.w3.org/2000/svg">
<path d="M95.0603 150.422L92.5778 150.127L95.0603 150.422ZM66.5769 173.556L66.8626 176.04V176.04L66.5769 173.556ZM27.826 161.356L26.3752 163.392L26.3057 163.342L26.2397 163.288L27.826 161.356ZM6.57521 137.504L8.81321 136.39V136.39L6.57521 137.504ZM17.8473 76.0287L20.096 77.1211L17.8473 76.0287ZM87.6887 -1.35808e-05C89.0694 -0.00279333 90.1909 1.11424 90.1937 2.49495L90.239 24.9949C90.2418 26.3756 89.1247 27.4972 87.744 27.4999C86.3633 27.5027 85.2418 26.3857 85.239 25.005L85.1987 5.00501L65.1988 5.04526C63.8181 5.04804 62.6965 3.93101 62.6938 2.55031C62.691 1.1696 63.808 0.0480488 65.1887 0.045269L87.6887 -1.35808e-05ZM88.6479 256.233L86.9875 258.102C47.4457 222.971 35.7663 175.396 39.507 149.093L41.9821 149.445L44.4572 149.797C40.9628 174.368 51.965 220.297 90.3084 254.364L88.6479 256.233ZM41.9821 149.445L39.507 149.093C41.3912 135.845 47.4005 125.852 55.6184 120.611C63.9176 115.317 74.1354 115.1 83.6744 120.831L82.3868 122.974L81.0992 125.117C73.096 120.308 64.9202 120.608 58.3071 124.826C51.6125 129.096 46.1906 137.609 44.4572 149.797L41.9821 149.445ZM82.3868 122.974L83.6744 120.831C89.2391 124.175 93.2939 127.797 95.6319 132.699C97.9611 137.582 98.4145 143.377 97.5429 150.717L95.0603 150.422L92.5778 150.127C93.3965 143.233 92.8704 138.523 91.1189 134.851C89.3762 131.197 86.2491 128.212 81.0992 125.117L82.3868 122.974ZM95.0603 150.422L97.5429 150.717C96.0792 163.043 84.693 173.989 66.8626 176.04L66.5769 173.556L66.2912 171.073C82.445 169.215 91.4552 159.581 92.5778 150.127L95.0603 150.422ZM66.5769 173.556L66.8626 176.04C56.8858 177.188 46.7012 173.924 39.1906 170.538C35.4011 168.83 32.2146 167.055 29.9726 165.705C28.8504 165.029 27.9614 164.458 27.3483 164.053C27.0416 163.85 26.8037 163.689 26.6398 163.576C26.5578 163.52 26.4944 163.475 26.4501 163.444C26.4279 163.429 26.4105 163.417 26.398 163.408C26.3918 163.403 26.3867 163.4 26.3829 163.397C26.381 163.396 26.3794 163.395 26.3781 163.394C26.3775 163.393 26.3767 163.393 26.3764 163.392C26.3758 163.392 26.3752 163.392 27.826 161.356C29.2767 159.32 29.2763 159.319 29.276 159.319C29.2759 159.319 29.2757 159.319 29.2756 159.319C29.2756 159.319 29.2758 159.319 29.2763 159.319C29.2774 159.32 29.2797 159.322 29.2832 159.324C29.2902 159.329 29.302 159.337 29.3185 159.349C29.3515 159.372 29.4033 159.408 29.4733 159.456C29.6134 159.553 29.8261 159.697 30.1062 159.882C30.6666 160.253 31.4956 160.786 32.5514 161.421C34.6655 162.694 37.675 164.371 41.2455 165.98C48.4548 169.23 57.6457 172.067 66.2912 171.073L66.5769 173.556ZM27.826 161.356C26.2397 163.288 26.2394 163.288 26.2391 163.287C26.2389 163.287 26.2385 163.287 26.2381 163.287C26.2373 163.286 26.2362 163.285 26.235 163.284C26.2324 163.282 26.2289 163.279 26.2245 163.275C26.2156 163.268 26.2029 163.258 26.1866 163.244C26.1539 163.217 26.1065 163.178 26.0451 163.126C25.9223 163.024 25.7438 162.874 25.516 162.681C25.0603 162.294 24.407 161.732 23.6076 161.025C22.0101 159.612 19.8227 157.612 17.4613 155.266C12.8007 150.636 7.2301 144.429 4.33722 138.618L6.57521 137.504L8.81321 136.39C11.3143 141.414 16.3691 147.133 20.9854 151.719C23.2624 153.982 25.3763 155.914 26.9205 157.28C27.692 157.962 28.3196 158.502 28.7522 158.869C28.9685 159.053 29.1359 159.193 29.248 159.287C29.3041 159.334 29.3464 159.369 29.374 159.392C29.3878 159.403 29.398 159.412 29.4044 159.417C29.4076 159.419 29.4098 159.421 29.4112 159.422C29.4118 159.423 29.4122 159.423 29.4124 159.423C29.4125 159.424 29.4124 159.423 29.4125 159.424C29.4124 159.423 29.4122 159.423 27.826 161.356ZM6.57521 137.504L4.33722 138.618C-1.19451 127.507 -0.848441 116.693 2.10963 106.129C5.03101 95.6967 10.5878 85.2507 15.5986 74.9363L17.8473 76.0287L20.096 77.1211C14.9489 87.716 9.68963 97.6026 6.92444 107.478C4.19593 117.222 3.98488 126.691 8.81321 136.39L6.57521 137.504ZM17.8473 76.0287L15.5986 74.9363C25.1347 55.3067 40.9839 42.084 53.4051 29.6127L55.1765 31.3769L56.9478 33.1411C44.1036 46.0371 29.1604 58.4626 20.096 77.1211L17.8473 76.0287ZM55.1765 31.3769L53.4051 29.6127C59.8192 23.1728 64.8762 19.0557 69.8564 14.9999C74.8184 10.959 79.7037 6.9795 85.9224 0.735775L87.6937 2.49998L89.465 4.26418C83.051 10.7041 77.994 14.8212 73.0137 18.877C68.0517 22.9179 63.1664 26.8974 56.9478 33.1411L55.1765 31.3769Z" fill="#456395"/>
</svg>
